<svg width="26" height="26" viewBox="0 0 26 26" fill="none" xmlns="http://www.w3.org/2000/svg">
<g clip-path="url(#clip0_1_2)">
<path d="M20.505 0H5.495C2.4602 0 0 2.46019 0 5.495V20.5049C0 23.5397 2.4602 26 5.495 26H20.505C23.5398 26 26 23.5397 26 20.5049V5.495C26 2.46019 23.5398 0 20.505 0Z" fill="url(#paint0_linear_1_2)"/>
<path fill-rule="evenodd" clip-rule="evenodd" d="M6.506 7.00004C6.43984 6.99924 6.37417 7.01152 6.31282 7.03629C6.25146 7.06106 6.19563 7.09781 6.14856 7.14432C6.10149 7.19083 6.06413 7.24623 6.03863 7.30729C6.01312 7.36834 6 7.43387 6 7.50004V14C6 17.87 9.13 21 13 21C16.87 21 20 17.87 20 14V7.50004C20 7.43387 19.9869 7.36834 19.9614 7.30729C19.9359 7.24623 19.8985 7.19083 19.8514 7.14432C19.8044 7.09781 19.7485 7.06106 19.6872 7.03629C19.6258 7.01152 19.5602 6.99924 19.494 7.00004L16.494 7.033C16.3621 7.03458 16.2361 7.08826 16.1436 7.18229C16.0511 7.27632 15.9995 7.40303 16 7.53495V14.012C16.0016 14.4058 15.925 14.796 15.7747 15.1601C15.6243 15.5241 15.4032 15.8547 15.1242 16.1326C14.8451 16.4105 14.5137 16.6303 14.149 16.7792C13.7844 16.9281 13.3938 17.0032 13 17C11.328 17 10 15.676 10 14.012V7.53495C10 7.40337 9.94816 7.27711 9.85568 7.18351C9.76321 7.08991 9.63757 7.03653 9.506 7.03495L6.506 7.00004ZM7 8.00602L9 8.02701V9.00004H7V8.00602ZM19 8.00602V9.00004H17V8.02701L19 8.00602ZM7 10H9V14.0099C9.00212 15.069 9.42461 16.084 10.1746 16.8318C10.9247 17.5796 11.9409 17.999 13 17.998C15.207 17.998 17 16.2119 17 14.0099V10H19V14C19 17.333 16.333 20 13 20C9.667 20 7 17.333 7 14V10Z" fill="white"/>
</g>
<defs>
<linearGradient id="paint0_linear_1_2" x1="3.26802" y1="0.205195" x2="23.6157" y2="25.3443" gradientUnits="userSpaceOnUse">
<stop stop-color="#007C71"/>
<stop offset="1" stop-color="#005237"/>
</linearGradient>
<clipPath id="clip0_1_2">
<rect width="26" height="26" fill="white"/>
</clipPath>
</defs>
</svg>
